ply
format ascii 1.0
comment VCGLIB generated
element vertex 892
property float x
property float y
property float z
element face 1024
property list uchar int vertex_indices
end_header
0.217793 -3.71573e-008 0.180643 
0.214754 -3.71573e-008 0.192128 
0.218279 -3.71573e-008 0.195957 
0.22545 -3.71573e-008 0.192128 
0.233349 -3.71573e-008 0.180643 
0.200914 -0.0854837 0.180643 
0.198111 -0.0842912 0.192128 
0.201362 -0.0856746 0.195957 
0.207977 -0.088489 0.192128 
0.215265 -0.0915897 0.180643 
0.154633 -0.154633 0.180643 
0.152476 -0.152476 0.192128 
0.154978 -0.154978 0.195957 
0.160069 -0.160069 0.192128 
0.165678 -0.165678 0.180643 
0.0854835 -0.200914 0.180643 
0.084291 -0.198111 0.192128 
0.0856744 -0.201362 0.195957 
0.0884888 -0.207977 0.192128 
0.0915895 -0.215265 0.180643 
-1.63492e-007 -0.217793 0.180643 
-1.63492e-007 -0.214755 0.192128 
-1.63492e-007 -0.218279 0.195957 
-1.63492e-007 -0.22545 0.192128 
-1.63492e-007 -0.23335 0.180643 
-0.0913905 -0.200914 0.180643 
-0.0867832 -0.198111 0.192128 
-0.086413 -0.201362 0.195957 
-0.0885815 -0.207977 0.192128 
-0.0915899 -0.215265 0.180643 
-0.159883 -0.154633 0.180643 
-0.154691 -0.152476 0.192128 
-0.155635 -0.154978 0.195957 
-0.160151 -0.160069 0.192128 
-0.165678 -0.165678 0.180643 
-0.202883 -0.0854837 0.180643 
-0.198942 -0.0842912 0.192128 
-0.201609 -0.0856746 0.195957 
-0.208008 -0.088489 0.192128 
-0.215265 -0.0915897 0.180643 
-0.217793 -3.71573e-008 0.180643 
-0.214755 -3.71573e-008 0.192128 
-0.218279 -3.71573e-008 0.195957 
-0.22545 -3.71573e-008 0.192128 
-0.23335 -3.71573e-008 0.180643 
-0.200914 0.0854837 0.180643 
-0.198111 0.0842911 0.192128 
-0.201363 0.0856745 0.195957 
-0.207978 0.088489 0.192128 
-0.215265 0.0915897 0.180643 
-0.154633 0.154633 0.180643 
-0.152476 0.152476 0.192128 
-0.154978 0.154978 0.195957 
-0.160069 0.160069 0.192128 
-0.165678 0.165678 0.180643 
-0.0854839 0.200914 0.180643 
-0.0842913 0.198111 0.192128 
-0.0856747 0.201362 0.195957 
-0.0884892 0.207977 0.192128 
-0.0915899 0.215265 0.180643 
-1.63492e-007 0.217793 0.180643 
-1.63492e-007 0.214754 0.192128 
-1.63492e-007 0.218279 0.195957 
-1.63492e-007 0.22545 0.192128 
-1.63492e-007 0.23335 0.180643 
0.0854835 0.200914 0.180643 
0.084291 0.198111 0.192128 
0.0856744 0.201362 0.195957 
0.0884888 0.207977 0.192128 
0.0915895 0.215265 0.180643 
0.154633 0.154633 0.180643 
0.152476 0.152476 0.192128 
0.154978 0.154978 0.195957 
0.160069 0.160069 0.192128 
0.165678 0.165678 0.180643 
0.200914 0.0854837 0.180643 
0.198111 0.0842911 0.192128 
0.201362 0.0856745 0.195957 
0.207977 0.088489 0.192128 
0.215265 0.0915897 0.180643 
0.26191 -3.71573e-008 0.119571 
0.286825 -3.71573e-008 0.0595932 
0.304448 -3.71573e-008 0.00180272 
0.311133 -3.71573e-008 -0.0527063 
0.241612 -0.1028 0.119571 
0.264596 -0.112579 0.0595932 
0.280853 -0.119496 0.00180272 
0.28702 -0.12212 -0.0527063 
0.185956 -0.185957 0.119571 
0.203646 -0.203646 0.0595932 
0.216158 -0.216158 0.00180272 
0.220904 -0.220904 -0.0527063 
0.1028 -0.241612 0.119571 
0.112579 -0.264597 0.0595932 
0.119496 -0.280854 0.00180272 
0.122119 -0.28702 -0.0527063 
-1.63492e-007 -0.261911 0.119571 
-1.63492e-007 -0.286826 0.0595932 
-1.63492e-007 -0.304448 0.00180272 
-1.63492e-007 -0.311133 -0.0527063 
-0.1028 -0.241612 0.119571 
-0.112579 -0.264597 0.0595932 
-0.119496 -0.280854 0.00180272 
-0.12212 -0.28702 -0.0527063 
-0.185957 -0.185957 0.119571 
-0.203646 -0.203646 0.0595932 
-0.216158 -0.216158 0.00180272 
-0.220904 -0.220904 -0.0527063 
-0.241613 -0.1028 0.119571 
-0.264597 -0.112579 0.0595932 
-0.280854 -0.119496 0.00180272 
-0.28702 -0.12212 -0.0527063 
-0.261911 -3.71573e-008 0.119571 
-0.286826 -3.71573e-008 0.0595932 
-0.304448 -3.71573e-008 0.00180272 
-0.311133 -3.71573e-008 -0.0527063 
-0.241613 0.1028 0.119571 
-0.264597 0.112579 0.0595932 
-0.280854 0.119496 0.00180272 
-0.28702 0.12212 -0.0527063 
-0.185957 0.185956 0.119571 
-0.203646 0.203646 0.0595932 
-0.216158 0.216158 0.00180272 
-0.220904 0.220904 -0.0527063 
-0.1028 0.241612 0.119571 
-0.112579 0.264596 0.0595932 
-0.119496 0.280853 0.00180272 
-0.12212 0.28702 -0.0527063 
-1.63492e-007 0.261911 0.119571 
-1.63492e-007 0.286825 0.0595932 
-1.63492e-007 0.304448 0.00180272 
-1.63492e-007 0.311133 -0.0527063 
0.1028 0.241612 0.119571 
0.112579 0.264596 0.0595932 
0.119496 0.280853 0.00180272 
0.122119 0.28702 -0.0527063 
0.185956 0.185956 0.119571 
0.203646 0.203646 0.0595932 
0.216158 0.216158 0.00180272 
0.220904 0.220904 -0.0527063 
0.241612 0.1028 0.119571 
0.264596 0.112579 0.0595932 
0.280853 0.119496 0.00180272 
0.28702 0.12212 -0.0527063 
0.298979 -3.71573e-008 -0.0988293 
0.272241 -3.71573e-008 -0.13292 
0.245503 -3.71573e-008 -0.156073 
0.233349 -3.71573e-008 -0.169381 
0.275808 -0.117349 -0.0988293 
0.251142 -0.106855 -0.13292 
0.226477 -0.09636 -0.156073 
0.215265 -0.0915897 -0.169381 
0.212275 -0.212275 -0.0988293 
0.193291 -0.193291 -0.13292 
0.174307 -0.174307 -0.156073 
0.165678 -0.165678 -0.169381 
0.117349 -0.275808 -0.0988293 
0.106854 -0.251142 -0.13292 
0.0963598 -0.226477 -0.156073 
0.0915895 -0.215265 -0.169381 
-1.63492e-007 -0.298979 -0.0988293 
-1.63492e-007 -0.272241 -0.13292 
-1.63492e-007 -0.245503 -0.156073 
-1.63492e-007 -0.23335 -0.169381 
-0.117349 -0.275808 -0.0988293 
-0.106855 -0.251142 -0.13292 
-0.0963602 -0.226477 -0.156073 
-0.0915899 -0.215265 -0.169381 
-0.212275 -0.212275 -0.0988293 
-0.193291 -0.193291 -0.13292 
-0.174307 -0.174307 -0.156073 
-0.165678 -0.165678 -0.169381 
-0.275808 -0.117349 -0.0988293 
-0.251143 -0.106855 -0.13292 
-0.226477 -0.09636 -0.156073 
-0.215265 -0.0915897 -0.169381 
-0.298979 -3.71573e-008 -0.0988293 
-0.272241 -3.71573e-008 -0.13292 
-0.245503 -3.71573e-008 -0.156073 
-0.23335 -3.71573e-008 -0.169381 
-0.275808 0.117349 -0.0988293 
-0.251143 0.106855 -0.13292 
-0.226477 0.09636 -0.156073 
-0.215265 0.0915897 -0.169381 
-0.212275 0.212275 -0.0988293 
-0.193291 0.193291 -0.13292 
-0.174307 0.174307 -0.156073 
-0.165678 0.165678 -0.169381 
-0.117349 0.275808 -0.0988293 
-0.106855 0.251142 -0.13292 
-0.0963602 0.226477 -0.156073 
-0.0915899 0.215265 -0.169381 
-1.63492e-007 0.298979 -0.0988293 
-1.63492e-007 0.272241 -0.13292 
-1.63492e-007 0.245503 -0.156073 
-1.63492e-007 0.23335 -0.169381 
0.117349 0.275808 -0.0988293 
0.106854 0.251142 -0.13292 
0.0963598 0.226477 -0.156073 
0.0915895 0.215265 -0.169381 
0.212275 0.212275 -0.0988293 
0.193291 0.193291 -0.13292 
0.174307 0.174307 -0.156073 
0.165678 0.165678 -0.169381 
0.275808 0.117349 -0.0988293 
0.251142 0.106855 -0.13292 
0.226477 0.09636 -0.156073 
0.215265 0.0915897 -0.169381 
0.228063 -3.71573e-008 -0.177949 
0.199805 -3.71573e-008 -0.185424 
0.129983 -3.71573e-008 -0.190711 
-1.63492e-007 -3.71573e-008 -0.192716 
0.210388 -0.0895147 -0.177949 
0.18432 -0.0784237 -0.185424 
0.119909 -0.0510184 -0.190711 
0.161924 -0.161925 -0.177949 
0.141862 -0.141862 -0.185424 
0.0922877 -0.092288 -0.190711 
0.0895144 -0.210388 -0.177949 
0.0784235 -0.184321 -0.185424 
0.0510182 -0.119909 -0.190711 
-1.63492e-007 -0.228063 -0.177949 
-1.63492e-007 -0.199806 -0.185424 
-1.63492e-007 -0.129983 -0.190711 
-0.0895148 -0.210388 -0.177949 
-0.0784238 -0.184321 -0.185424 
-0.0510185 -0.119909 -0.190711 
-0.161925 -0.161925 -0.177949 
-0.141862 -0.141862 -0.185424 
-0.0922881 -0.092288 -0.190711 
-0.210388 -0.0895147 -0.177949 
-0.184321 -0.0784237 -0.185424 
-0.119909 -0.0510184 -0.190711 
-0.228063 -3.71573e-008 -0.177949 
-0.199806 -3.71573e-008 -0.185424 
-0.129983 -3.71573e-008 -0.190711 
-0.210388 0.0895146 -0.177949 
-0.184321 0.0784236 -0.185424 
-0.119909 0.0510183 -0.190711 
-0.161925 0.161924 -0.177949 
-0.141862 0.141862 -0.185424 
-0.0922881 0.0922879 -0.190711 
-0.0895148 0.210388 -0.177949 
-0.0784238 0.184321 -0.185424 
-0.0510185 0.119909 -0.190711 
-1.63492e-007 0.228063 -0.177949 
-1.63492e-007 0.199805 -0.185424 
-1.63492e-007 0.129983 -0.190711 
0.0895144 0.210388 -0.177949 
0.0784235 0.184321 -0.185424 
0.0510182 0.119909 -0.190711 
0.161924 0.161924 -0.177949 
0.141862 0.141862 -0.185424 
0.0922877 0.0922879 -0.190711 
0.210388 0.0895146 -0.177949 
0.18432 0.0784236 -0.185424 
0.119909 0.0510183 -0.190711 
-0.248906 -3.71573e-008 0.122306 
-0.321585 -3.71573e-008 0.121759 
-0.375304 -3.71573e-008 0.117931 
-0.408605 -3.71573e-008 0.107539 
-0.420029 -3.71573e-008 0.0873035 
-0.246476 -0.0262519 0.127775 
-0.32375 -0.0262519 0.127143 
-0.380469 -0.0262519 0.122716 
-0.415403 -0.0262519 0.110701 
-0.427322 -0.0262519 0.0873035 
-0.241128 -0.0350025 0.139807 
-0.328513 -0.0350025 0.138987 
-0.391833 -0.0350025 0.133244 
-0.43036 -0.0350025 0.117657 
-0.443364 -0.0350025 0.0873035 
-0.23578 -0.0262519 0.151839 
-0.333275 -0.0262519 0.150831 
-0.403197 -0.0262519 0.143772 
-0.445316 -0.0262519 0.124613 
-0.459407 -0.0262519 0.0873035 
-0.23335 -3.71573e-008 0.157308 
-0.33544 -3.71573e-008 0.156215 
-0.408362 -3.71573e-008 0.148558 
-0.452115 -3.71573e-008 0.127775 
-0.466699 -3.71573e-008 0.0873035 
-0.23578 0.0262518 0.151839 
-0.333275 0.0262518 0.150831 
-0.403197 0.0262518 0.143772 
-0.445316 0.0262518 0.124613 
-0.459407 0.0262518 0.0873035 
-0.241128 0.0350024 0.139807 
-0.328513 0.0350024 0.138987 
-0.391833 0.0350024 0.133244 
-0.43036 0.0350024 0.117657 
-0.443364 0.0350024 0.0873035 
-0.246476 0.0262518 0.127775 
-0.32375 0.0262518 0.127143 
-0.380469 0.0262518 0.122716 
-0.415403 0.0262518 0.110701 
-0.427322 0.0262518 0.0873035 
-0.413953 -3.71573e-008 0.0555825 
-0.39475 -3.71573e-008 0.0172986 
-0.360963 -3.71573e-008 -0.0209853 
-0.311133 -3.71573e-008 -0.0527063 
-0.42058 -0.0262519 0.0525204 
-0.399459 -0.0262519 0.012627 
-0.362615 -0.0262519 -0.0267535 
-0.308702 -0.0262519 -0.0599984 
-0.435161 -0.0350025 0.0457836 
-0.40982 -0.0350025 0.00234964 
-0.36625 -0.0350025 -0.0394436 
-0.303355 -0.0350025 -0.0760412 
-0.449741 -0.0262519 0.0390469 
-0.420181 -0.0262519 -0.00792777 
-0.369884 -0.0262519 -0.0521337 
-0.298007 -0.0262519 -0.092084 
-0.456369 -3.71573e-008 0.0359848 
-0.424891 -3.71573e-008 -0.0125993 
-0.371536 -3.71573e-008 -0.0579019 
-0.295576 -3.71573e-008 -0.0993762 
-0.449741 0.0262518 0.0390469 
-0.420181 0.0262518 -0.00792777 
-0.369884 0.0262518 -0.0521337 
-0.298007 0.0262518 -0.092084 
-0.435161 0.0350024 0.0457836 
-0.40982 0.0350024 0.00234964 
-0.36625 0.0350024 -0.0394436 
-0.303355 0.0350024 -0.0760412 
-0.42058 0.0262518 0.0525204 
-0.399459 0.0262518 0.012627 
-0.362615 0.0262518 -0.0267535 
-0.308702 0.0262518 -0.0599984 
0.264463 -3.71573e-008 0.0289661 
0.339086 -3.71573e-008 0.0461027 
0.371415 -3.71573e-008 0.0873035 
0.389159 -3.71573e-008 0.137255 
0.420029 -3.71573e-008 0.180643 
0.264463 -0.057754 0.00891259 
0.344783 -0.0521482 0.0312335 
0.378707 -0.0398153 0.078644 
0.398046 -0.0274824 0.134121 
0.434613 -0.0218766 0.180643 
0.264463 -0.0770054 -0.035205 
0.357316 -0.0695309 -0.00147874 
0.394749 -0.0530871 0.0595932 
0.417598 -0.0366432 0.127228 
0.466699 -0.0291687 0.180643 
0.264463 -0.057754 -0.0793227 
0.36985 -0.0521482 -0.034191 
0.410792 -0.0398153 0.0405424 
0.43715 -0.0274824 0.120335 
0.498784 -0.0218766 0.180643 
0.264463 -3.71573e-008 -0.0993762 
0.375547 -3.71573e-008 -0.0490602 
0.418084 -3.71573e-008 0.0318829 
0.446038 -3.71573e-008 0.117201 
0.513369 -3.71573e-008 0.180643 
0.264463 0.057754 -0.0793227 
0.36985 0.0521481 -0.034191 
0.410792 0.0398152 0.0405424 
0.43715 0.0274823 0.120335 
0.498784 0.0218765 0.180643 
0.264463 0.0770053 -0.035205 
0.357316 0.0695308 -0.00147874 
0.394749 0.053087 0.0595932 
0.417598 0.0366431 0.127228 
0.466699 0.0291687 0.180643 
0.264463 0.057754 0.00891259 
0.344783 0.0521481 0.0312335 
0.378707 0.0398152 0.078644 
0.398046 0.0274823 0.134121 
0.434613 0.0218765 0.180643 
0.43121 -3.71573e-008 0.187206 
0.439475 -3.71573e-008 0.189394 
0.441906 -3.71573e-008 0.187206 
0.435586 -3.71573e-008 0.180643 
0.44683 -0.0205093 0.187527 
0.454135 -0.0175012 0.189907 
0.454353 -0.0144932 0.187655 
0.445309 -0.0131259 0.180643 
0.481192 -0.0273457 0.188232 
0.486388 -0.023335 0.191035 
0.481739 -0.0193243 0.188642 
0.466699 -0.0175013 0.180643 
0.515555 -0.0205093 0.188937 
0.51864 -0.0175012 0.192163 
0.509125 -0.0144932 0.189629 
0.488089 -0.0131259 0.180643 
0.531174 -3.71573e-008 0.189257 
0.533301 -3.71573e-008 0.192675 
0.521573 -3.71573e-008 0.190078 
0.497812 -3.71573e-008 0.180643 
0.515555 0.0205092 0.188937 
0.51864 0.0175012 0.192163 
0.509125 0.0144932 0.189629 
0.488089 0.0131259 0.180643 
0.481192 0.0273456 0.188232 
0.486388 0.0233349 0.191035 
0.481739 0.0193242 0.188642 
0.466699 0.0175012 0.180643 
0.44683 0.0205092 0.187527 
0.454135 0.0175012 0.189907 
0.454353 0.0144932 0.187655 
0.445309 0.0131259 0.180643 
-1.63492e-007 -3.71573e-008 0.297318 
0.0529896 -3.71573e-008 0.289661 
0.0505589 -3.71573e-008 0.271066 
0.030627 -3.71573e-008 0.248096 
0.0311131 -3.71573e-008 0.227313 
0.0489014 -0.0208539 0.289661 
0.046657 -0.0198937 0.271066 
0.0282595 -0.0120396 0.248096 
0.0287018 -0.012212 0.227313 
0.0376718 -0.037672 0.289661 
0.0359405 -0.0359407 0.271066 
0.0217615 -0.0217617 0.248096 
0.0220903 -0.0220905 0.227313 
0.0208537 -0.0489016 0.289661 
0.0198935 -0.0466572 0.271066 
0.0120394 -0.0282597 0.248096 
0.0122118 -0.028702 0.227313 
-1.63492e-007 -0.0529898 0.289661 
-1.63492e-007 -0.0505591 0.271066 
-1.63492e-007 -0.0306272 0.248096 
-1.63492e-007 -0.0311133 0.227313 
-0.020854 -0.0489016 0.289661 
-0.0198938 -0.0466572 0.271066 
-0.0120398 -0.0282597 0.248096 
-0.0122121 -0.028702 0.227313 
-0.0376721 -0.037672 0.289661 
-0.0359409 -0.0359407 0.271066 
-0.0217618 -0.0217617 0.248096 
-0.0220906 -0.0220905 0.227313 
-0.0489017 -0.0208539 0.289661 
-0.0466573 -0.0198937 0.271066 
-0.0282598 -0.0120396 0.248096 
-0.0287022 -0.012212 0.227313 
-0.05299 -3.71573e-008 0.289661 
-0.0505592 -3.71573e-008 0.271066 
-0.0306273 -3.71573e-008 0.248096 
-0.0311134 -3.71573e-008 0.227313 
-0.0489017 0.0208538 0.289661 
-0.0466573 0.0198936 0.271066 
-0.0282598 0.0120396 0.248096 
-0.0287022 0.0122119 0.227313 
-0.0376721 0.0376719 0.289661 
-0.0359409 0.0359407 0.271066 
-0.0217618 0.0217616 0.248096 
-0.0220906 0.0220904 0.227313 
-0.020854 0.0489015 0.289661 
-0.0198938 0.0466571 0.271066 
-0.0120398 0.0282596 0.248096 
-0.0122121 0.028702 0.227313 
-1.63492e-007 0.0529898 0.289661 
-1.63492e-007 0.050559 0.271066 
-1.63492e-007 0.0306271 0.248096 
-1.63492e-007 0.0311132 0.227313 
0.0208537 0.0489015 0.289661 
0.0198935 0.0466571 0.271066 
0.0120394 0.0282596 0.248096 
0.0122118 0.028702 0.227313 
0.0376718 0.0376719 0.289661 
0.0359405 0.0359407 0.271066 
0.0217615 0.0217616 0.248096 
0.0220903 0.0220904 0.227313 
0.0489014 0.0208538 0.289661 
0.046657 0.0198936 0.271066 
0.0282595 0.0120396 0.248096 
0.0287018 0.0122119 0.227313 
0.070977 -3.71573e-008 0.213458 
0.128342 -3.71573e-008 0.203978 
0.179873 -3.71573e-008 0.194498 
0.202236 -3.71573e-008 0.180643 
0.0654763 -0.0278586 0.213458 
0.118396 -0.0503744 0.203978 
0.165933 -0.0706004 0.194498 
0.186563 -0.0793778 0.180643 
0.0503936 -0.0503938 0.213458 
0.0911228 -0.091123 0.203978 
0.12771 -0.12771 0.194498 
0.143588 -0.143588 0.180643 
0.0278584 -0.0654765 0.213458 
0.0503742 -0.118396 0.203978 
0.0706002 -0.165933 0.194498 
0.0793776 -0.186563 0.180643 
-1.63492e-007 -0.0709772 0.213458 
-1.63492e-007 -0.128342 0.203978 
-1.63492e-007 -0.179874 0.194498 
-1.63492e-007 -0.202236 0.180643 
-0.0278587 -0.0654765 0.213458 
-0.0503745 -0.118396 0.203978 
-0.0706005 -0.165933 0.194498 
-0.0793779 -0.186563 0.180643 
-0.0503939 -0.0503938 0.213458 
-0.0911232 -0.091123 0.203978 
-0.12771 -0.12771 0.194498 
-0.143588 -0.143588 0.180643 
-0.0654766 -0.0278586 0.213458 
-0.118396 -0.0503744 0.203978 
-0.165934 -0.0706004 0.194498 
-0.186563 -0.0793778 0.180643 
-0.0709773 -3.71573e-008 0.213458 
-0.128342 -3.71573e-008 0.203978 
-0.179874 -3.71573e-008 0.194498 
-0.202236 -3.71573e-008 0.180643 
-0.0654766 0.0278585 0.213458 
-0.118396 0.0503743 0.203978 
-0.165934 0.0706003 0.194498 
-0.186563 0.0793777 0.180643 
-0.0503939 0.0503937 0.213458 
-0.0911232 0.091123 0.203978 
-0.12771 0.12771 0.194498 
-0.143588 0.143588 0.180643 
-0.0278587 0.0654764 0.213458 
-0.0503745 0.118396 0.203978 
-0.0706005 0.165933 0.194498 
-0.0793779 0.186563 0.180643 
-1.63492e-007 0.0709771 0.213458 
-1.63492e-007 0.128342 0.203978 
-1.63492e-007 0.179874 0.194498 
-1.63492e-007 0.202236 0.180643 
0.0278584 0.0654764 0.213458 
0.0503742 0.118396 0.203978 
0.0706002 0.165933 0.194498 
0.0793776 0.186563 0.180643 
0.0503936 0.0503937 0.213458 
0.0911228 0.091123 0.203978 
0.12771 0.12771 0.194498 
0.143588 0.143588 0.180643 
0.0654763 0.0278585 0.213458 
0.118396 0.0503743 0.203978 
0.165933 0.0706003 0.194498 
0.186563 0.0793777 0.180643 
-0.217793 -3.71573e-008 0.180643 
-0.214755 -3.71573e-008 0.192128 
-0.217793 -3.71573e-008 0.180643 
-0.214755 -3.71573e-008 0.192128 
-0.218279 -3.71573e-008 0.195957 
-0.214755 -3.71573e-008 0.192128 
-0.218279 -3.71573e-008 0.195957 
-0.22545 -3.71573e-008 0.192128 
-0.218279 -3.71573e-008 0.195957 
-0.22545 -3.71573e-008 0.192128 
-0.23335 -3.71573e-008 0.180643 
-0.22545 -3.71573e-008 0.192128 
0.217793 -3.71573e-008 0.180643 
0.214754 -3.71573e-008 0.192128 
0.214754 -3.71573e-008 0.192128 
0.214754 -3.71573e-008 0.192128 
0.218279 -3.71573e-008 0.195957 
0.218279 -3.71573e-008 0.195957 
0.218279 -3.71573e-008 0.195957 
0.22545 -3.71573e-008 0.192128 
0.22545 -3.71573e-008 0.192128 
0.22545 -3.71573e-008 0.192128 
0.233349 -3.71573e-008 0.180643 
0.233349 -3.71573e-008 0.180643 
-0.23335 -3.71573e-008 0.180643 
-0.261911 -3.71573e-008 0.119571 
-0.23335 -3.71573e-008 0.180643 
-0.261911 -3.71573e-008 0.119571 
-0.286826 -3.71573e-008 0.0595932 
-0.261911 -3.71573e-008 0.119571 
-0.286826 -3.71573e-008 0.0595932 
-0.304448 -3.71573e-008 0.00180272 
-0.286826 -3.71573e-008 0.0595932 
-0.304448 -3.71573e-008 0.00180272 
-0.311133 -3.71573e-008 -0.0527063 
-0.304448 -3.71573e-008 0.00180272 
0.233349 -3.71573e-008 0.180643 
0.26191 -3.71573e-008 0.119571 
0.26191 -3.71573e-008 0.119571 
0.26191 -3.71573e-008 0.119571 
0.286825 -3.71573e-008 0.0595932 
0.286825 -3.71573e-008 0.0595932 
0.286825 -3.71573e-008 0.0595932 
0.304448 -3.71573e-008 0.00180272 
0.304448 -3.71573e-008 0.00180272 
0.304448 -3.71573e-008 0.00180272 
0.311133 -3.71573e-008 -0.0527063 
0.311133 -3.71573e-008 -0.0527063 
-0.311133 -3.71573e-008 -0.0527063 
-0.298979 -3.71573e-008 -0.0988293 
-0.311133 -3.71573e-008 -0.0527063 
-0.298979 -3.71573e-008 -0.0988293 
-0.272241 -3.71573e-008 -0.13292 
-0.298979 -3.71573e-008 -0.0988293 
-0.272241 -3.71573e-008 -0.13292 
-0.245503 -3.71573e-008 -0.156073 
-0.272241 -3.71573e-008 -0.13292 
-0.245503 -3.71573e-008 -0.156073 
-0.23335 -3.71573e-008 -0.169381 
-0.245503 -3.71573e-008 -0.156073 
0.311133 -3.71573e-008 -0.0527063 
0.298979 -3.71573e-008 -0.0988293 
0.298979 -3.71573e-008 -0.0988293 
0.298979 -3.71573e-008 -0.0988293 
0.272241 -3.71573e-008 -0.13292 
0.272241 -3.71573e-008 -0.13292 
0.272241 -3.71573e-008 -0.13292 
0.245503 -3.71573e-008 -0.156073 
0.245503 -3.71573e-008 -0.156073 
0.245503 -3.71573e-008 -0.156073 
0.233349 -3.71573e-008 -0.169381 
0.233349 -3.71573e-008 -0.169381 
0.233349 -3.71573e-008 -0.169381 
0.215265 -0.0915897 -0.169381 
0.233349 -3.71573e-008 -0.169381 
-1.63492e-007 -3.71573e-008 -0.192716 
0.215265 -0.0915897 -0.169381 
0.165678 -0.165678 -0.169381 
0.215265 -0.0915897 -0.169381 
-1.63492e-007 -3.71573e-008 -0.192716 
-1.63492e-007 -3.71573e-008 -0.192716 
0.165678 -0.165678 -0.169381 
0.0915895 -0.215265 -0.169381 
0.165678 -0.165678 -0.169381 
-1.63492e-007 -3.71573e-008 -0.192716 
-1.63492e-007 -3.71573e-008 -0.192716 
-1.63492e-007 -3.71573e-008 -0.192716 
0.0915895 -0.215265 -0.169381 
-1.63492e-007 -0.23335 -0.169381 
0.0915895 -0.215265 -0.169381 
-1.63492e-007 -3.71573e-008 -0.192716 
-1.63492e-007 -3.71573e-008 -0.192716 
-1.63492e-007 -3.71573e-008 -0.192716 
-1.63492e-007 -0.23335 -0.169381 
-0.0915899 -0.215265 -0.169381 
-1.63492e-007 -0.23335 -0.169381 
-1.63492e-007 -3.71573e-008 -0.192716 
-1.63492e-007 -3.71573e-008 -0.192716 
-1.63492e-007 -3.71573e-008 -0.192716 
-0.0915899 -0.215265 -0.169381 
-0.165678 -0.165678 -0.169381 
-0.0915899 -0.215265 -0.169381 
-1.63492e-007 -3.71573e-008 -0.192716 
-1.63492e-007 -3.71573e-008 -0.192716 
-1.63492e-007 -3.71573e-008 -0.192716 
-0.165678 -0.165678 -0.169381 
-0.215265 -0.0915897 -0.169381 
-0.165678 -0.165678 -0.169381 
-1.63492e-007 -3.71573e-008 -0.192716 
-1.63492e-007 -3.71573e-008 -0.192716 
-1.63492e-007 -3.71573e-008 -0.192716 
-0.215265 -0.0915897 -0.169381 
-0.23335 -3.71573e-008 -0.169381 
-0.215265 -0.0915897 -0.169381 
-1.63492e-007 -3.71573e-008 -0.192716 
-1.63492e-007 -3.71573e-008 -0.192716 
-1.63492e-007 -3.71573e-008 -0.192716 
-0.23335 -3.71573e-008 -0.169381 
-0.215265 0.0915897 -0.169381 
-0.228063 -3.71573e-008 -0.177949 
-0.23335 -3.71573e-008 -0.169381 
-0.228063 -3.71573e-008 -0.177949 
-0.199806 -3.71573e-008 -0.185424 
-0.228063 -3.71573e-008 -0.177949 
-0.199806 -3.71573e-008 -0.185424 
-0.129983 -3.71573e-008 -0.190711 
-0.199806 -3.71573e-008 -0.185424 
-0.129983 -3.71573e-008 -0.190711 
-1.63492e-007 -3.71573e-008 -0.192716 
-0.129983 -3.71573e-008 -0.190711 
-0.215265 0.0915897 -0.169381 
-0.165678 0.165678 -0.169381 
-0.215265 0.0915897 -0.169381 
-1.63492e-007 -3.71573e-008 -0.192716 
-1.63492e-007 -3.71573e-008 -0.192716 
-0.165678 0.165678 -0.169381 
-0.0915899 0.215265 -0.169381 
-0.165678 0.165678 -0.169381 
-1.63492e-007 -3.71573e-008 -0.192716 
-1.63492e-007 -3.71573e-008 -0.192716 
-1.63492e-007 -3.71573e-008 -0.192716 
-0.0915899 0.215265 -0.169381 
-1.63492e-007 0.23335 -0.169381 
-0.0915899 0.215265 -0.169381 
-1.63492e-007 -3.71573e-008 -0.192716 
-1.63492e-007 -3.71573e-008 -0.192716 
-1.63492e-007 -3.71573e-008 -0.192716 
-1.63492e-007 0.23335 -0.169381 
0.0915895 0.215265 -0.169381 
-1.63492e-007 0.23335 -0.169381 
-1.63492e-007 -3.71573e-008 -0.192716 
-1.63492e-007 -3.71573e-008 -0.192716 
-1.63492e-007 -3.71573e-008 -0.192716 
0.0915895 0.215265 -0.169381 
0.165678 0.165678 -0.169381 
0.0915895 0.215265 -0.169381 
-1.63492e-007 -3.71573e-008 -0.192716 
-1.63492e-007 -3.71573e-008 -0.192716 
-1.63492e-007 -3.71573e-008 -0.192716 
0.165678 0.165678 -0.169381 
0.215265 0.0915897 -0.169381 
0.165678 0.165678 -0.169381 
-1.63492e-007 -3.71573e-008 -0.192716 
-1.63492e-007 -3.71573e-008 -0.192716 
-1.63492e-007 -3.71573e-008 -0.192716 
0.215265 0.0915897 -0.169381 
0.233349 -3.71573e-008 -0.169381 
0.228063 -3.71573e-008 -0.177949 
0.228063 -3.71573e-008 -0.177949 
0.215265 0.0915897 -0.169381 
0.228063 -3.71573e-008 -0.177949 
0.199805 -3.71573e-008 -0.185424 
0.199805 -3.71573e-008 -0.185424 
0.199805 -3.71573e-008 -0.185424 
0.129983 -3.71573e-008 -0.190711 
0.129983 -3.71573e-008 -0.190711 
0.129983 -3.71573e-008 -0.190711 
-1.63492e-007 -3.71573e-008 -0.192716 
-1.63492e-007 -3.71573e-008 -0.192716 
-1.63492e-007 -3.71573e-008 -0.192716 
-0.248906 -3.71573e-008 0.122306 
-0.321585 -3.71573e-008 0.121759 
-0.321585 -3.71573e-008 0.121759 
-0.321585 -3.71573e-008 0.121759 
-0.375304 -3.71573e-008 0.117931 
-0.375304 -3.71573e-008 0.117931 
-0.375304 -3.71573e-008 0.117931 
-0.408605 -3.71573e-008 0.107539 
-0.408605 -3.71573e-008 0.107539 
-0.408605 -3.71573e-008 0.107539 
-0.420029 -3.71573e-008 0.0873035 
-0.420029 -3.71573e-008 0.0873035 
-0.420029 -3.71573e-008 0.0873035 
-0.413953 -3.71573e-008 0.0555825 
-0.413953 -3.71573e-008 0.0555825 
-0.413953 -3.71573e-008 0.0555825 
-0.39475 -3.71573e-008 0.0172986 
-0.39475 -3.71573e-008 0.0172986 
-0.39475 -3.71573e-008 0.0172986 
-0.360963 -3.71573e-008 -0.0209853 
-0.360963 -3.71573e-008 -0.0209853 
-0.360963 -3.71573e-008 -0.0209853 
-0.311133 -3.71573e-008 -0.0527063 
-0.311133 -3.71573e-008 -0.0527063 
0.264463 -3.71573e-008 -0.0993762 
0.375547 -3.71573e-008 -0.0490602 
0.264463 -3.71573e-008 -0.0993762 
0.375547 -3.71573e-008 -0.0490602 
0.418084 -3.71573e-008 0.0318829 
0.375547 -3.71573e-008 -0.0490602 
0.418084 -3.71573e-008 0.0318829 
0.446038 -3.71573e-008 0.117201 
0.418084 -3.71573e-008 0.0318829 
0.446038 -3.71573e-008 0.117201 
0.513369 -3.71573e-008 0.180643 
0.446038 -3.71573e-008 0.117201 
0.513369 -3.71573e-008 0.180643 
0.531174 -3.71573e-008 0.189257 
0.513369 -3.71573e-008 0.180643 
0.531174 -3.71573e-008 0.189257 
0.533301 -3.71573e-008 0.192675 
0.531174 -3.71573e-008 0.189257 
0.533301 -3.71573e-008 0.192675 
0.521573 -3.71573e-008 0.190078 
0.533301 -3.71573e-008 0.192675 
0.521573 -3.71573e-008 0.190078 
0.497812 -3.71573e-008 0.180643 
0.521573 -3.71573e-008 0.190078 
-1.63492e-007 -3.71573e-008 0.297318 
-1.63492e-007 -3.71573e-008 0.297318 
-1.63492e-007 -3.71573e-008 0.297318 
-1.63492e-007 -3.71573e-008 0.297318 
-1.63492e-007 -3.71573e-008 0.297318 
-1.63492e-007 -3.71573e-008 0.297318 
-1.63492e-007 -3.71573e-008 0.297318 
-1.63492e-007 -3.71573e-008 0.297318 
-1.63492e-007 -3.71573e-008 0.297318 
-1.63492e-007 -3.71573e-008 0.297318 
-1.63492e-007 -3.71573e-008 0.297318 
-1.63492e-007 -3.71573e-008 0.297318 
-1.63492e-007 -3.71573e-008 0.297318 
-1.63492e-007 -3.71573e-008 0.297318 
-1.63492e-007 -3.71573e-008 0.297318 
-1.63492e-007 -3.71573e-008 0.297318 
-1.63492e-007 -3.71573e-008 0.297318 
-1.63492e-007 -3.71573e-008 0.297318 
-1.63492e-007 -3.71573e-008 0.297318 
-1.63492e-007 -3.71573e-008 0.297318 
-1.63492e-007 -3.71573e-008 0.297318 
-1.63492e-007 -3.71573e-008 0.297318 
-1.63492e-007 -3.71573e-008 0.297318 
-0.05299 -3.71573e-008 0.289661 
-0.05299 -3.71573e-008 0.289661 
-0.0505592 -3.71573e-008 0.271066 
-0.05299 -3.71573e-008 0.289661 
-0.0505592 -3.71573e-008 0.271066 
-0.0306273 -3.71573e-008 0.248096 
-0.0505592 -3.71573e-008 0.271066 
-0.0306273 -3.71573e-008 0.248096 
-0.0311134 -3.71573e-008 0.227313 
-0.0306273 -3.71573e-008 0.248096 
-1.63492e-007 -3.71573e-008 0.297318 
-1.63492e-007 -3.71573e-008 0.297318 
-1.63492e-007 -3.71573e-008 0.297318 
-1.63492e-007 -3.71573e-008 0.297318 
-1.63492e-007 -3.71573e-008 0.297318 
-1.63492e-007 -3.71573e-008 0.297318 
-1.63492e-007 -3.71573e-008 0.297318 
-1.63492e-007 -3.71573e-008 0.297318 
-1.63492e-007 -3.71573e-008 0.297318 
-1.63492e-007 -3.71573e-008 0.297318 
-1.63492e-007 -3.71573e-008 0.297318 
-1.63492e-007 -3.71573e-008 0.297318 
-1.63492e-007 -3.71573e-008 0.297318 
-1.63492e-007 -3.71573e-008 0.297318 
-1.63492e-007 -3.71573e-008 0.297318 
-1.63492e-007 -3.71573e-008 0.297318 
-1.63492e-007 -3.71573e-008 0.297318 
-1.63492e-007 -3.71573e-008 0.297318 
-1.63492e-007 -3.71573e-008 0.297318 
-1.63492e-007 -3.71573e-008 0.297318 
0.0529896 -3.71573e-008 0.289661 
0.0529896 -3.71573e-008 0.289661 
-1.63492e-007 -3.71573e-008 0.297318 
0.0529896 -3.71573e-008 0.289661 
0.0505589 -3.71573e-008 0.271066 
0.0505589 -3.71573e-008 0.271066 
0.0505589 -3.71573e-008 0.271066 
0.030627 -3.71573e-008 0.248096 
0.030627 -3.71573e-008 0.248096 
0.030627 -3.71573e-008 0.248096 
0.0311131 -3.71573e-008 0.227313 
0.0311131 -3.71573e-008 0.227313 
0.0311131 -3.71573e-008 0.227313 
0.0287018 -0.012212 0.227313 
0.0311131 -3.71573e-008 0.227313 
0.0287018 -0.012212 0.227313 
0.0220903 -0.0220905 0.227313 
0.0287018 -0.012212 0.227313 
0.0220903 -0.0220905 0.227313 
0.0122118 -0.028702 0.227313 
0.0220903 -0.0220905 0.227313 
0.0122118 -0.028702 0.227313 
-1.63492e-007 -0.0311133 0.227313 
0.0122118 -0.028702 0.227313 
-1.63492e-007 -0.0311133 0.227313 
-0.0122121 -0.028702 0.227313 
-1.63492e-007 -0.0311133 0.227313 
-0.0122121 -0.028702 0.227313 
-0.0220906 -0.0220905 0.227313 
-0.0122121 -0.028702 0.227313 
-0.0220906 -0.0220905 0.227313 
-0.0287022 -0.012212 0.227313 
-0.0220906 -0.0220905 0.227313 
-0.0287022 -0.012212 0.227313 
-0.0311134 -3.71573e-008 0.227313 
-0.0287022 -0.012212 0.227313 
-0.0311134 -3.71573e-008 0.227313 
-0.0287022 0.0122119 0.227313 
-0.0709773 -3.71573e-008 0.213458 
-0.0311134 -3.71573e-008 0.227313 
-0.0709773 -3.71573e-008 0.213458 
-0.128342 -3.71573e-008 0.203978 
-0.0709773 -3.71573e-008 0.213458 
-0.128342 -3.71573e-008 0.203978 
-0.179874 -3.71573e-008 0.194498 
-0.128342 -3.71573e-008 0.203978 
-0.179874 -3.71573e-008 0.194498 
-0.202236 -3.71573e-008 0.180643 
-0.179874 -3.71573e-008 0.194498 
-0.0287022 0.0122119 0.227313 
-0.0220906 0.0220904 0.227313 
-0.0287022 0.0122119 0.227313 
-0.0220906 0.0220904 0.227313 
-0.0122121 0.028702 0.227313 
-0.0220906 0.0220904 0.227313 
-0.0122121 0.028702 0.227313 
-1.63492e-007 0.0311132 0.227313 
-0.0122121 0.028702 0.227313 
-1.63492e-007 0.0311132 0.227313 
0.0122118 0.028702 0.227313 
-1.63492e-007 0.0311132 0.227313 
0.0122118 0.028702 0.227313 
0.0220903 0.0220904 0.227313 
0.0122118 0.028702 0.227313 
0.0220903 0.0220904 0.227313 
0.0287018 0.0122119 0.227313 
0.0220903 0.0220904 0.227313 
0.0287018 0.0122119 0.227313 
0.0311131 -3.71573e-008 0.227313 
0.070977 -3.71573e-008 0.213458 
0.070977 -3.71573e-008 0.213458 
0.0287018 0.0122119 0.227313 
0.070977 -3.71573e-008 0.213458 
0.128342 -3.71573e-008 0.203978 
0.128342 -3.71573e-008 0.203978 
0.128342 -3.71573e-008 0.203978 
0.179873 -3.71573e-008 0.194498 
0.179873 -3.71573e-008 0.194498 
0.179873 -3.71573e-008 0.194498 
0.202236 -3.71573e-008 0.180643 
0.202236 -3.71573e-008 0.180643 
3 0 5 6 
3 6 1 0 
3 1 6 7 
3 7 2 1 
3 2 7 8 
3 8 3 2 
3 3 8 9 
3 9 4 3 
3 5 10 11 
3 11 6 5 
3 6 11 12 
3 12 7 6 
3 7 12 13 
3 13 8 7 
3 8 13 14 
3 14 9 8 
3 10 15 16 
3 16 11 10 
3 11 16 17 
3 17 12 11 
3 12 17 18 
3 18 13 12 
3 13 18 19 
3 19 14 13 
3 15 20 21 
3 21 16 15 
3 16 21 22 
3 22 17 16 
3 17 22 23 
3 23 18 17 
3 18 23 24 
3 24 19 18 
3 20 25 26 
3 26 21 20 
3 21 26 27 
3 27 22 21 
3 22 27 28 
3 28 23 22 
3 23 28 29 
3 29 24 23 
3 25 30 31 
3 31 26 25 
3 26 31 32 
3 32 27 26 
3 27 32 33 
3 33 28 27 
3 28 33 34 
3 34 29 28 
3 30 35 36 
3 36 31 30 
3 31 36 37 
3 37 32 31 
3 32 37 38 
3 38 33 32 
3 33 38 39 
3 39 34 33 
3 35 40 41 
3 41 36 35 
3 36 41 42 
3 42 37 36 
3 37 42 43 
3 43 38 37 
3 38 43 44 
3 44 39 38 
3 530 45 46 
3 46 531 532 
3 533 46 47 
3 47 534 535 
3 536 47 48 
3 48 537 538 
3 539 48 49 
3 49 540 541 
3 45 50 51 
3 51 46 45 
3 46 51 52 
3 52 47 46 
3 47 52 53 
3 53 48 47 
3 48 53 54 
3 54 49 48 
3 50 55 56 
3 56 51 50 
3 51 56 57 
3 57 52 51 
3 52 57 58 
3 58 53 52 
3 53 58 59 
3 59 54 53 
3 55 60 61 
3 61 56 55 
3 56 61 62 
3 62 57 56 
3 57 62 63 
3 63 58 57 
3 58 63 64 
3 64 59 58 
3 60 65 66 
3 66 61 60 
3 61 66 67 
3 67 62 61 
3 62 67 68 
3 68 63 62 
3 63 68 69 
3 69 64 63 
3 65 70 71 
3 71 66 65 
3 66 71 72 
3 72 67 66 
3 67 72 73 
3 73 68 67 
3 68 73 74 
3 74 69 68 
3 70 75 76 
3 76 71 70 
3 71 76 77 
3 77 72 71 
3 72 77 78 
3 78 73 72 
3 73 78 79 
3 79 74 73 
3 75 542 543 
3 544 76 75 
3 76 545 546 
3 547 77 76 
3 77 548 549 
3 550 78 77 
3 78 551 552 
3 553 79 78 
3 4 9 84 
3 84 80 4 
3 80 84 85 
3 85 81 80 
3 81 85 86 
3 86 82 81 
3 82 86 87 
3 87 83 82 
3 9 14 88 
3 88 84 9 
3 84 88 89 
3 89 85 84 
3 85 89 90 
3 90 86 85 
3 86 90 91 
3 91 87 86 
3 14 19 92 
3 92 88 14 
3 88 92 93 
3 93 89 88 
3 89 93 94 
3 94 90 89 
3 90 94 95 
3 95 91 90 
3 19 24 96 
3 96 92 19 
3 92 96 97 
3 97 93 92 
3 93 97 98 
3 98 94 93 
3 94 98 99 
3 99 95 94 
3 24 29 100 
3 100 96 24 
3 96 100 101 
3 101 97 96 
3 97 101 102 
3 102 98 97 
3 98 102 103 
3 103 99 98 
3 29 34 104 
3 104 100 29 
3 100 104 105 
3 105 101 100 
3 101 105 106 
3 106 102 101 
3 102 106 107 
3 107 103 102 
3 34 39 108 
3 108 104 34 
3 104 108 109 
3 109 105 104 
3 105 109 110 
3 110 106 105 
3 106 110 111 
3 111 107 106 
3 39 44 112 
3 112 108 39 
3 108 112 113 
3 113 109 108 
3 109 113 114 
3 114 110 109 
3 110 114 115 
3 115 111 110 
3 554 49 116 
3 116 555 556 
3 557 116 117 
3 117 558 559 
3 560 117 118 
3 118 561 562 
3 563 118 119 
3 119 564 565 
3 49 54 120 
3 120 116 49 
3 116 120 121 
3 121 117 116 
3 117 121 122 
3 122 118 117 
3 118 122 123 
3 123 119 118 
3 54 59 124 
3 124 120 54 
3 120 124 125 
3 125 121 120 
3 121 125 126 
3 126 122 121 
3 122 126 127 
3 127 123 122 
3 59 64 128 
3 128 124 59 
3 124 128 129 
3 129 125 124 
3 125 129 130 
3 130 126 125 
3 126 130 131 
3 131 127 126 
3 64 69 132 
3 132 128 64 
3 128 132 133 
3 133 129 128 
3 129 133 134 
3 134 130 129 
3 130 134 135 
3 135 131 130 
3 69 74 136 
3 136 132 69 
3 132 136 137 
3 137 133 132 
3 133 137 138 
3 138 134 133 
3 134 138 139 
3 139 135 134 
3 74 79 140 
3 140 136 74 
3 136 140 141 
3 141 137 136 
3 137 141 142 
3 142 138 137 
3 138 142 143 
3 143 139 138 
3 79 566 567 
3 568 140 79 
3 140 569 570 
3 571 141 140 
3 141 572 573 
3 574 142 141 
3 142 575 576 
3 577 143 142 
3 83 87 148 
3 148 144 83 
3 144 148 149 
3 149 145 144 
3 145 149 150 
3 150 146 145 
3 146 150 151 
3 151 147 146 
3 87 91 152 
3 152 148 87 
3 148 152 153 
3 153 149 148 
3 149 153 154 
3 154 150 149 
3 150 154 155 
3 155 151 150 
3 91 95 156 
3 156 152 91 
3 152 156 157 
3 157 153 152 
3 153 157 158 
3 158 154 153 
3 154 158 159 
3 159 155 154 
3 95 99 160 
3 160 156 95 
3 156 160 161 
3 161 157 156 
3 157 161 162 
3 162 158 157 
3 158 162 163 
3 163 159 158 
3 99 103 164 
3 164 160 99 
3 160 164 165 
3 165 161 160 
3 161 165 166 
3 166 162 161 
3 162 166 167 
3 167 163 162 
3 103 107 168 
3 168 164 103 
3 164 168 169 
3 169 165 164 
3 165 169 170 
3 170 166 165 
3 166 170 171 
3 171 167 166 
3 107 111 172 
3 172 168 107 
3 168 172 173 
3 173 169 168 
3 169 173 174 
3 174 170 169 
3 170 174 175 
3 175 171 170 
3 111 115 176 
3 176 172 111 
3 172 176 177 
3 177 173 172 
3 173 177 178 
3 178 174 173 
3 174 178 179 
3 179 175 174 
3 578 119 180 
3 180 579 580 
3 581 180 181 
3 181 582 583 
3 584 181 182 
3 182 585 586 
3 587 182 183 
3 183 588 589 
3 119 123 184 
3 184 180 119 
3 180 184 185 
3 185 181 180 
3 181 185 186 
3 186 182 181 
3 182 186 187 
3 187 183 182 
3 123 127 188 
3 188 184 123 
3 184 188 189 
3 189 185 184 
3 185 189 190 
3 190 186 185 
3 186 190 191 
3 191 187 186 
3 127 131 192 
3 192 188 127 
3 188 192 193 
3 193 189 188 
3 189 193 194 
3 194 190 189 
3 190 194 195 
3 195 191 190 
3 131 135 196 
3 196 192 131 
3 192 196 197 
3 197 193 192 
3 193 197 198 
3 198 194 193 
3 194 198 199 
3 199 195 194 
3 135 139 200 
3 200 196 135 
3 196 200 201 
3 201 197 196 
3 197 201 202 
3 202 198 197 
3 198 202 203 
3 203 199 198 
3 139 143 204 
3 204 200 139 
3 200 204 205 
3 205 201 200 
3 201 205 206 
3 206 202 201 
3 202 206 207 
3 207 203 202 
3 143 590 591 
3 592 204 143 
3 204 593 594 
3 595 205 204 
3 205 596 597 
3 598 206 205 
3 206 599 600 
3 601 207 206 
3 602 603 212 
3 212 208 604 
3 208 212 213 
3 213 209 208 
3 209 213 214 
3 214 210 209 
3 210 214 211 
3 211 605 210 
3 606 607 215 
3 215 212 608 
3 212 215 216 
3 216 213 212 
3 213 216 217 
3 217 214 213 
3 214 217 609 
3 610 211 214 
3 611 612 218 
3 218 215 613 
3 215 218 219 
3 219 216 215 
3 216 219 220 
3 220 217 216 
3 217 220 614 
3 615 616 217 
3 617 618 221 
3 221 218 619 
3 218 221 222 
3 222 219 218 
3 219 222 223 
3 223 220 219 
3 220 223 620 
3 621 622 220 
3 623 624 224 
3 224 221 625 
3 221 224 225 
3 225 222 221 
3 222 225 226 
3 226 223 222 
3 223 226 626 
3 627 628 223 
3 629 630 227 
3 227 224 631 
3 224 227 228 
3 228 225 224 
3 225 228 229 
3 229 226 225 
3 226 229 632 
3 633 634 226 
3 635 636 230 
3 230 227 637 
3 227 230 231 
3 231 228 227 
3 228 231 232 
3 232 229 228 
3 229 232 638 
3 639 640 229 
3 641 642 233 
3 233 230 643 
3 230 233 234 
3 234 231 230 
3 231 234 235 
3 235 232 231 
3 232 235 644 
3 645 646 232 
3 647 648 236 
3 236 649 650 
3 651 236 237 
3 237 652 653 
3 654 237 238 
3 238 655 656 
3 657 238 211 
3 211 658 659 
3 660 661 239 
3 239 236 662 
3 236 239 240 
3 240 237 236 
3 237 240 241 
3 241 238 237 
3 238 241 663 
3 664 211 238 
3 665 666 242 
3 242 239 667 
3 239 242 243 
3 243 240 239 
3 240 243 244 
3 244 241 240 
3 241 244 668 
3 669 670 241 
3 671 672 245 
3 245 242 673 
3 242 245 246 
3 246 243 242 
3 243 246 247 
3 247 244 243 
3 244 247 674 
3 675 676 244 
3 677 678 248 
3 248 245 679 
3 245 248 249 
3 249 246 245 
3 246 249 250 
3 250 247 246 
3 247 250 680 
3 681 682 247 
3 683 684 251 
3 251 248 685 
3 248 251 252 
3 252 249 248 
3 249 252 253 
3 253 250 249 
3 250 253 686 
3 687 688 250 
3 689 690 254 
3 254 251 691 
3 251 254 255 
3 255 252 251 
3 252 255 256 
3 256 253 252 
3 253 256 692 
3 693 694 253 
3 695 696 697 
3 698 254 699 
3 254 700 701 
3 702 255 254 
3 255 703 704 
3 705 256 255 
3 256 706 707 
3 708 709 256 
3 257 262 263 
3 263 258 257 
3 258 263 264 
3 264 259 258 
3 259 264 265 
3 265 260 259 
3 260 265 266 
3 266 261 260 
3 262 267 268 
3 268 263 262 
3 263 268 269 
3 269 264 263 
3 264 269 270 
3 270 265 264 
3 265 270 271 
3 271 266 265 
3 267 272 273 
3 273 268 267 
3 268 273 274 
3 274 269 268 
3 269 274 275 
3 275 270 269 
3 270 275 276 
3 276 271 270 
3 272 277 278 
3 278 273 272 
3 273 278 279 
3 279 274 273 
3 274 279 280 
3 280 275 274 
3 275 280 281 
3 281 276 275 
3 277 282 283 
3 283 278 277 
3 278 283 284 
3 284 279 278 
3 279 284 285 
3 285 280 279 
3 280 285 286 
3 286 281 280 
3 282 287 288 
3 288 283 282 
3 283 288 289 
3 289 284 283 
3 284 289 290 
3 290 285 284 
3 285 290 291 
3 291 286 285 
3 287 292 293 
3 293 288 287 
3 288 293 294 
3 294 289 288 
3 289 294 295 
3 295 290 289 
3 290 295 296 
3 296 291 290 
3 292 710 711 
3 712 293 292 
3 293 713 714 
3 715 294 293 
3 294 716 717 
3 718 295 294 
3 295 719 720 
3 721 296 295 
3 261 266 301 
3 301 297 261 
3 297 301 302 
3 302 298 297 
3 298 302 303 
3 303 299 298 
3 299 303 304 
3 304 300 299 
3 266 271 305 
3 305 301 266 
3 301 305 306 
3 306 302 301 
3 302 306 307 
3 307 303 302 
3 303 307 308 
3 308 304 303 
3 271 276 309 
3 309 305 271 
3 305 309 310 
3 310 306 305 
3 306 310 311 
3 311 307 306 
3 307 311 312 
3 312 308 307 
3 276 281 313 
3 313 309 276 
3 309 313 314 
3 314 310 309 
3 310 314 315 
3 315 311 310 
3 311 315 316 
3 316 312 311 
3 281 286 317 
3 317 313 281 
3 313 317 318 
3 318 314 313 
3 314 318 319 
3 319 315 314 
3 315 319 320 
3 320 316 315 
3 286 291 321 
3 321 317 286 
3 317 321 322 
3 322 318 317 
3 318 322 323 
3 323 319 318 
3 319 323 324 
3 324 320 319 
3 291 296 325 
3 325 321 291 
3 321 325 326 
3 326 322 321 
3 322 326 327 
3 327 323 322 
3 323 327 328 
3 328 324 323 
3 296 722 723 
3 724 325 296 
3 325 725 726 
3 727 326 325 
3 326 728 729 
3 730 327 326 
3 327 731 732 
3 733 328 327 
3 329 334 335 
3 335 330 329 
3 330 335 336 
3 336 331 330 
3 331 336 337 
3 337 332 331 
3 332 337 338 
3 338 333 332 
3 334 339 340 
3 340 335 334 
3 335 340 341 
3 341 336 335 
3 336 341 342 
3 342 337 336 
3 337 342 343 
3 343 338 337 
3 339 344 345 
3 345 340 339 
3 340 345 346 
3 346 341 340 
3 341 346 347 
3 347 342 341 
3 342 347 348 
3 348 343 342 
3 344 349 350 
3 350 345 344 
3 345 350 351 
3 351 346 345 
3 346 351 352 
3 352 347 346 
3 347 352 353 
3 353 348 347 
3 734 354 355 
3 355 735 736 
3 737 355 356 
3 356 738 739 
3 740 356 357 
3 357 741 742 
3 743 357 358 
3 358 744 745 
3 354 359 360 
3 360 355 354 
3 355 360 361 
3 361 356 355 
3 356 361 362 
3 362 357 356 
3 357 362 363 
3 363 358 357 
3 359 364 365 
3 365 360 359 
3 360 365 366 
3 366 361 360 
3 361 366 367 
3 367 362 361 
3 362 367 368 
3 368 363 362 
3 364 329 330 
3 330 365 364 
3 365 330 331 
3 331 366 365 
3 366 331 332 
3 332 367 366 
3 367 332 333 
3 333 368 367 
3 333 338 373 
3 373 369 333 
3 369 373 374 
3 374 370 369 
3 370 374 375 
3 375 371 370 
3 371 375 376 
3 376 372 371 
3 338 343 377 
3 377 373 338 
3 373 377 378 
3 378 374 373 
3 374 378 379 
3 379 375 374 
3 375 379 380 
3 380 376 375 
3 343 348 381 
3 381 377 343 
3 377 381 382 
3 382 378 377 
3 378 382 383 
3 383 379 378 
3 379 383 384 
3 384 380 379 
3 348 353 385 
3 385 381 348 
3 381 385 386 
3 386 382 381 
3 382 386 387 
3 387 383 382 
3 383 387 388 
3 388 384 383 
3 746 358 389 
3 389 747 748 
3 749 389 390 
3 390 750 751 
3 752 390 391 
3 391 753 754 
3 755 391 392 
3 392 756 757 
3 358 363 393 
3 393 389 358 
3 389 393 394 
3 394 390 389 
3 390 394 395 
3 395 391 390 
3 391 395 396 
3 396 392 391 
3 363 368 397 
3 397 393 363 
3 393 397 398 
3 398 394 393 
3 394 398 399 
3 399 395 394 
3 395 399 400 
3 400 396 395 
3 368 333 369 
3 369 397 368 
3 397 369 370 
3 370 398 397 
3 398 370 371 
3 371 399 398 
3 399 371 372 
3 372 400 399 
3 401 758 406 
3 406 402 401 
3 402 406 407 
3 407 403 402 
3 403 407 408 
3 408 404 403 
3 404 408 409 
3 409 405 404 
3 759 760 410 
3 410 406 761 
3 406 410 411 
3 411 407 406 
3 407 411 412 
3 412 408 407 
3 408 412 413 
3 413 409 408 
3 762 763 414 
3 414 410 764 
3 410 414 415 
3 415 411 410 
3 411 415 416 
3 416 412 411 
3 412 416 417 
3 417 413 412 
3 765 766 418 
3 418 414 767 
3 414 418 419 
3 419 415 414 
3 415 419 420 
3 420 416 415 
3 416 420 421 
3 421 417 416 
3 768 769 422 
3 422 418 770 
3 418 422 423 
3 423 419 418 
3 419 423 424 
3 424 420 419 
3 420 424 425 
3 425 421 420 
3 771 772 426 
3 426 422 773 
3 422 426 427 
3 427 423 422 
3 423 427 428 
3 428 424 423 
3 424 428 429 
3 429 425 424 
3 774 775 430 
3 430 426 776 
3 426 430 431 
3 431 427 426 
3 427 431 432 
3 432 428 427 
3 428 432 433 
3 433 429 428 
3 777 778 434 
3 434 430 779 
3 430 434 435 
3 435 431 430 
3 431 435 436 
3 436 432 431 
3 432 436 437 
3 437 433 432 
3 401 780 438 
3 438 781 401 
3 782 438 439 
3 439 783 784 
3 785 439 440 
3 440 786 787 
3 788 440 441 
3 441 789 790 
3 791 792 442 
3 442 438 793 
3 438 442 443 
3 443 439 438 
3 439 443 444 
3 444 440 439 
3 440 444 445 
3 445 441 440 
3 794 795 446 
3 446 442 796 
3 442 446 447 
3 447 443 442 
3 443 447 448 
3 448 444 443 
3 444 448 449 
3 449 445 444 
3 797 798 450 
3 450 446 799 
3 446 450 451 
3 451 447 446 
3 447 451 452 
3 452 448 447 
3 448 452 453 
3 453 449 448 
3 800 801 454 
3 454 450 802 
3 450 454 455 
3 455 451 450 
3 451 455 456 
3 456 452 451 
3 452 456 457 
3 457 453 452 
3 803 804 458 
3 458 454 805 
3 454 458 459 
3 459 455 454 
3 455 459 460 
3 460 456 455 
3 456 460 461 
3 461 457 456 
3 806 807 462 
3 462 458 808 
3 458 462 463 
3 463 459 458 
3 459 463 464 
3 464 460 459 
3 460 464 465 
3 465 461 460 
3 809 810 811 
3 812 462 813 
3 462 814 815 
3 816 463 462 
3 463 817 818 
3 819 464 463 
3 464 820 821 
3 822 465 464 
3 823 824 470 
3 470 466 825 
3 466 470 471 
3 471 467 466 
3 467 471 472 
3 472 468 467 
3 468 472 473 
3 473 469 468 
3 826 827 474 
3 474 470 828 
3 470 474 475 
3 475 471 470 
3 471 475 476 
3 476 472 471 
3 472 476 477 
3 477 473 472 
3 829 830 478 
3 478 474 831 
3 474 478 479 
3 479 475 474 
3 475 479 480 
3 480 476 475 
3 476 480 481 
3 481 477 476 
3 832 833 482 
3 482 478 834 
3 478 482 483 
3 483 479 478 
3 479 483 484 
3 484 480 479 
3 480 484 485 
3 485 481 480 
3 835 836 486 
3 486 482 837 
3 482 486 487 
3 487 483 482 
3 483 487 488 
3 488 484 483 
3 484 488 489 
3 489 485 484 
3 838 839 490 
3 490 486 840 
3 486 490 491 
3 491 487 486 
3 487 491 492 
3 492 488 487 
3 488 492 493 
3 493 489 488 
3 841 842 494 
3 494 490 843 
3 490 494 495 
3 495 491 490 
3 491 495 496 
3 496 492 491 
3 492 496 497 
3 497 493 492 
3 844 845 498 
3 498 494 846 
3 494 498 499 
3 499 495 494 
3 495 499 500 
3 500 496 495 
3 496 500 501 
3 501 497 496 
3 847 848 502 
3 502 849 850 
3 851 502 503 
3 503 852 853 
3 854 503 504 
3 504 855 856 
3 857 504 505 
3 505 858 859 
3 860 861 506 
3 506 502 862 
3 502 506 507 
3 507 503 502 
3 503 507 508 
3 508 504 503 
3 504 508 509 
3 509 505 504 
3 863 864 510 
3 510 506 865 
3 506 510 511 
3 511 507 506 
3 507 511 512 
3 512 508 507 
3 508 512 513 
3 513 509 508 
3 866 867 514 
3 514 510 868 
3 510 514 515 
3 515 511 510 
3 511 515 516 
3 516 512 511 
3 512 516 517 
3 517 513 512 
3 869 870 518 
3 518 514 871 
3 514 518 519 
3 519 515 514 
3 515 519 520 
3 520 516 515 
3 516 520 521 
3 521 517 516 
3 872 873 522 
3 522 518 874 
3 518 522 523 
3 523 519 518 
3 519 523 524 
3 524 520 519 
3 520 524 525 
3 525 521 520 
3 875 876 526 
3 526 522 877 
3 522 526 527 
3 527 523 522 
3 523 527 528 
3 528 524 523 
3 524 528 529 
3 529 525 524 
3 878 879 880 
3 881 526 882 
3 526 883 884 
3 885 527 526 
3 527 886 887 
3 888 528 527 
3 528 889 890 
3 891 529 528 
